<svg xmlns="http://www.w3.org/2000/svg" viewBox="0 0 800 420" width="100%" height="420">
  <rect width="800" height="420" fill="#0f172a" rx="12"/>
  <text x="400" y="35" fill="#f8fafc" font-family="system-ui, sans-serif" font-size="18" font-weight="bold" text-anchor="middle">12-Lead ECG Coronary Territory &amp; Ischemia Localization</text>
  
  <!-- Lead Grid -->
  <!-- Row 1: High Lateral / Lateral -->
  <rect x="50" y="70" width="150" height="65" rx="8" fill="#1e293b" stroke="#3b82f6" stroke-width="2"/>
  <text x="65" y="95" fill="#38bdf8" font-family="system-ui, sans-serif" font-size="16" font-weight="bold">Lead I</text>
  <text x="65" y="115" fill="#94a3b8" font-family="system-ui, sans-serif" font-size="12">High Lateral (LCx)</text>

  <rect x="230" y="70" width="150" height="65" rx="8" fill="#1e293b" stroke="#3b82f6" stroke-width="2"/>
  <text x="245" y="95" fill="#38bdf8" font-family="system-ui, sans-serif" font-size="16" font-weight="bold">aVR</text>
  <text x="245" y="115" fill="#94a3b8" font-family="system-ui, sans-serif" font-size="12">Cavity / LMCA Sub</text>

  <rect x="410" y="70" width="150" height="65" rx="8" fill="#1e293b" stroke="#10b981" stroke-width="2"/>
  <text x="425" y="95" fill="#34d399" font-family="system-ui, sans-serif" font-size="16" font-weight="bold">V1</text>
  <text x="425" y="115" fill="#94a3b8" font-family="system-ui, sans-serif" font-size="12">Septal (LAD)</text>

  <rect x="590" y="70" width="150" height="65" rx="8" fill="#1e293b" stroke="#f59e0b" stroke-width="2"/>
  <text x="605" y="95" fill="#fbbf24" font-family="system-ui, sans-serif" font-size="16" font-weight="bold">V4</text>
  <text x="605" y="115" fill="#94a3b8" font-family="system-ui, sans-serif" font-size="12">Anterior (LAD)</text>

  <!-- Row 2: Inferior / Septal / Anterior -->
  <rect x="50" y="155" width="150" height="65" rx="8" fill="#1e293b" stroke="#ef4444" stroke-width="2"/>
  <text x="65" y="180" fill="#f87171" font-family="system-ui, sans-serif" font-size="16" font-weight="bold">Lead II</text>
  <text x="65" y="200" fill="#94a3b8" font-family="system-ui, sans-serif" font-size="12">Inferior (RCA)</text>

  <rect x="230" y="155" width="150" height="65" rx="8" fill="#1e293b" stroke="#3b82f6" stroke-width="2"/>
  <text x="245" y="180" fill="#38bdf8" font-family="system-ui, sans-serif" font-size="16" font-weight="bold">aVL</text>
  <text x="245" y="200" fill="#94a3b8" font-family="system-ui, sans-serif" font-size="12">High Lateral (LCx)</text>

  <rect x="410" y="155" width="150" height="65" rx="8" fill="#1e293b" stroke="#10b981" stroke-width="2"/>
  <text x="425" y="180" fill="#34d399" font-family="system-ui, sans-serif" font-size="16" font-weight="bold">V2</text>
  <text x="425" y="200" fill="#94a3b8" font-family="system-ui, sans-serif" font-size="12">Septal (LAD)</text>

  <rect x="590" y="155" width="150" height="65" rx="8" fill="#1e293b" stroke="#3b82f6" stroke-width="2"/>
  <text x="605" y="180" fill="#38bdf8" font-family="system-ui, sans-serif" font-size="16" font-weight="bold">V5</text>
  <text x="605" y="200" fill="#94a3b8" font-family="system-ui, sans-serif" font-size="12">Lateral (LCx/LAD)</text>

  <!-- Row 3: Inferior / Anterolateral -->
  <rect x="50" y="240" width="150" height="65" rx="8" fill="#1e293b" stroke="#ef4444" stroke-width="2"/>
  <text x="65" y="265" fill="#f87171" font-family="system-ui, sans-serif" font-size="16" font-weight="bold">Lead III</text>
  <text x="65" y="285" fill="#94a3b8" font-family="system-ui, sans-serif" font-size="12">Inferior (RCA)</text>

  <rect x="230" y="240" width="150" height="65" rx="8" fill="#1e293b" stroke="#ef4444" stroke-width="2"/>
  <text x="245" y="265" fill="#f87171" font-family="system-ui, sans-serif" font-size="16" font-weight="bold">aVF</text>
  <text x="245" y="285" fill="#94a3b8" font-family="system-ui, sans-serif" font-size="12">Inferior (RCA)</text>

  <rect x="410" y="240" width="150" height="65" rx="8" fill="#1e293b" stroke="#f59e0b" stroke-width="2"/>
  <text x="425" y="265" fill="#fbbf24" font-family="system-ui, sans-serif" font-size="16" font-weight="bold">V3</text>
  <text x="425" y="285" fill="#94a3b8" font-family="system-ui, sans-serif" font-size="12">Anterior (LAD)</text>

  <rect x="590" y="240" width="150" height="65" rx="8" fill="#1e293b" stroke="#3b82f6" stroke-width="2"/>
  <text x="605" y="265" fill="#38bdf8" font-family="system-ui, sans-serif" font-size="16" font-weight="bold">V6</text>
  <text x="605" y="285" fill="#94a3b8" font-family="system-ui, sans-serif" font-size="12">Lateral (LCx/LAD)</text>

  <!-- Legend -->
  <rect x="50" y="325" width="700" height="70" rx="8" fill="#1e293b"/>
  <circle cx="80" cy="360" r="7" fill="#ef4444"/>
  <text x="95" y="365" fill="#f8fafc" font-family="system-ui, sans-serif" font-size="13">Inferior (II, III, aVF) — RCA</text>

  <circle cx="280" cy="360" r="7" fill="#10b981"/>
  <text x="295" y="365" fill="#f8fafc" font-family="system-ui, sans-serif" font-size="13">Septal (V1, V2) — LAD</text>

  <circle cx="460" cy="360" r="7" fill="#f59e0b"/>
  <text x="475" y="365" fill="#f8fafc" font-family="system-ui, sans-serif" font-size="13">Anterior (V3, V4) — LAD</text>

  <circle cx="630" cy="360" r="7" fill="#3b82f6"/>
  <text x="645" y="365" fill="#f8fafc" font-family="system-ui, sans-serif" font-size="13">Lateral (I, aVL, V5, V6) — LCx</text>
</svg>